<?xml version="1.0" encoding="UTF-8"?>
<!DOCTYPE svg PUBLIC "-//W3C//DTD SVG 1.0//EN" "http://www.w3.org/TR/2001/REC-SVG-20010904/DTD/svg10.dtd">
<!-- Creator: CorelDRAW -->
<svg xmlns="http://www.w3.org/2000/svg" xml:space="preserve" width="90px" height="90px" version="1.0" style="shape-rendering:geometricPrecision; text-rendering:geometricPrecision; image-rendering:optimizeQuality; fill-rule:evenodd; clip-rule:evenodd"
viewBox="0 0 90 90"
 xmlns:xlink="http://www.w3.org/1999/xlink"
 xmlns:xodm="http://www.corel.com/coreldraw/odm/2003">
 <defs>
  <style type="text/css">
   <![CDATA[
    .str0 {stroke:black;stroke-width:0.937;stroke-miterlimit:2.61313}
    .str1 {stroke:white;stroke-width:2.344;stroke-linecap:round;stroke-linejoin:round;stroke-miterlimit:2.61313}
    .fil4 {fill:none}
    .fil2 {fill:aqua}
    .fil1 {fill:#D9D9D9}
    .fil3 {fill:#D9D9D9}
    .fil0 {fill:#FFE100}
   ]]>
  </style>
 </defs>
 <g id="Layer_x0020_1">
  <metadata id="CorelCorpID_0Corel-Layer"/>
  <path class="fil0" d="M33.556 19.952c0,4.755 1.666,8.719 4.455,12.175 3.21,3.977 9.043,6.697 14.418,6.697 2.397,0 5.914,-0.856 7.474,-1.681 -0.14,-1.688 -0.56,-1.195 -0.56,-4.859 0,-4.576 3.263,-9.108 7.345,-11.154 0.746,-0.374 1.334,-0.572 2.159,-0.83 0.357,-0.111 0.856,-0.228 1.21,-0.285 0.949,-0.155 1.058,0.086 1.058,-0.998 0,-4.414 -2.407,-9.24 -5.372,-12.193 -2.982,-2.969 -7.547,-5.558 -12.193,-5.558 -3.822,0 -6.004,0.096 -9.532,1.866 -3.189,1.599 -4.272,2.84 -6.304,5.095 -0.427,0.474 -0.591,0.767 -0.945,1.297 -1.952,2.924 -3.213,6.468 -3.213,10.428z"/>
  <path class="fil1 str0" d="M19.355 61.061c0.176,0.758 0.513,1.095 0.87,1.746l2.055 3.55c1.646,3.021 3.51,5.882 5.109,8.905 3.023,-0.807 1.01,-2.743 9.695,-0.164 1.858,0.552 3.797,0.968 5.749,1.538 1.981,0.579 3.77,0.974 5.751,1.537 1.022,0.291 1.802,0.463 2.802,0.748 4.364,1.239 4.482,0.67 8.079,-1.294 1.53,-0.835 2.932,-1.718 4.372,-2.542 1.453,-0.832 2.831,-1.615 4.278,-2.448 1.533,-0.883 18.587,-10.496 19.373,-11.46 2.559,-3.138 -0.186,-7.03 -2.546,-7.03 -2.686,0 -2.245,0.199 -4.494,1.486l-6.286 3.617c-1.134,0.634 -2.102,1.188 -3.198,1.847l-9.486 5.462c-4.05,2.396 -4.224,1.806 -9.235,0.48l-12.149 -3.173c-1.955,-0.509 -2.053,-0.528 -2.053,-1.684 0,-1.513 3.208,-0.252 4.859,0.186 1.623,0.429 11.558,3.178 12.332,3.178 2.788,0 4.915,-3.521 2.484,-6.036 -0.851,-0.881 -1.094,-0.905 -2.335,-1.214l-16.779 -4.524c-5.146,-1.363 -4.962,-1.107 -10.244,2.091 -1.518,0.919 -2.98,1.716 -4.51,2.591 -1.463,0.838 -2.981,1.806 -4.493,2.607z"/>
  <path class="fil2 str0" d="M7.582 60.5c1.912,3.613 5.54,9.19 7.184,12.453 0.451,0.893 0.318,1.749 -1.017,1.749 -0.837,0 -3.764,-5.712 -4.111,-6.354l-3.924 -6.727c-0.881,0.467 -1.639,0.851 -2.541,1.383 -3.174,1.873 -1.418,3.215 1.528,8.226 1.224,2.083 2.25,4.009 3.478,6.052l5.137 8.877c0.358,0.597 0.526,0.938 0.878,1.551 1.199,2.088 3.172,0.517 5.053,-0.596l6.169 -3.548c3.874,-2.344 3.072,-2.253 -0.751,-8.756l-5.188 -9.014c-0.582,-1.069 -1.216,-2.057 -1.795,-3.063l-2.577 -4.523c-0.232,-0.357 -0.185,-0.356 -0.552,-0.57 -1.471,-0.858 -3.447,0.769 -5.439,1.963 -0.574,0.344 -1.005,0.545 -1.532,0.897z"/>
  <path class="fil0" d="M61.398 33.032c0,2.894 1.298,5.701 3.223,7.615 7.641,7.595 19.013,1.523 19.013,-7.615 0,-9.839 -11.897,-14.878 -18.923,-7.899 -1.952,1.94 -3.313,5.052 -3.313,7.899z"/>
  <path class="fil3 str0" d="M60.277 64.798l4.377 -2.536c1.575,-0.932 2.934,-1.66 4.513,-2.588l9.049 -5.153c-0.368,-1.58 -2.127,-2.803 -4.111,-2.803 -1.978,0 -3.109,1.52 -4.158,2.569l-8.41 8.408c-0.82,0.807 -0.961,0.82 -1.26,2.103z"/>
  <path class="fil3 str0" d="M57.661 56.763c2.177,1.458 1.895,1.269 2.99,3.55 0.83,-0.221 6.953,-6.602 7.287,-7.1 -0.612,-0.704 -1.904,-1.682 -3.176,-1.682 -2.14,0 -2.976,1.013 -4.065,2.102 -0.816,0.817 -2.483,2.304 -3.036,3.13z"/>
  <path class="fil4 str1" d="M72.541 40.711l-6.055 -6.826m12.145 0.05l-6.09 6.776 -0.049 -15.446"/>
  <path class="fil4 str1" d="M57.776 16.949l0.018 -1.039c-3.215,-11.368 -19.878,1.893 -4.994,4.612 6.243,0.631 7.005,6.279 1.298,7.975 -3.387,0.792 -5.596,-0.648 -7.231,-3.19l-0.096 -1.787m5.658 5.194l-0.084 4.236m0.065 -25.3l0.105 3.728"/>
 </g>
</svg>
