<?xml version="1.0" encoding="UTF-8"?>
<!DOCTYPE svg PUBLIC "-//W3C//DTD SVG 1.0//EN" "http://www.w3.org/TR/2001/REC-SVG-20010904/DTD/svg10.dtd">
<!-- Creator: CorelDRAW -->
<svg xmlns="http://www.w3.org/2000/svg" xml:space="preserve" width="90px" height="90px" version="1.0" style="shape-rendering:geometricPrecision; text-rendering:geometricPrecision; image-rendering:optimizeQuality; fill-rule:evenodd; clip-rule:evenodd"
viewBox="0 0 90 90"
 xmlns:xlink="http://www.w3.org/1999/xlink"
 xmlns:xodm="http://www.corel.com/coreldraw/odm/2003">
 <defs>
  <style type="text/css">
   <![CDATA[
    .fil0 {fill:#f5eb00}
    .fil1 {fill:#f5eb00}
   ]]>
  </style>
 </defs>
 <g id="Layer_x0020_1">
  <metadata id="CorelCorpID_0Corel-Layer"/>
  <g id="_2793341346496">
   <g>
    <path class="fil0" d="M11.56 27.797c0,0.352 -0.06,0.802 0.061,1.137 0.086,0.236 0.075,0.039 0.113,0.382 0.039,0.362 0.1,0.365 0.151,0.593 0.011,0.053 0.031,0.232 0.034,0.255 0.044,0.338 0.154,0.468 0.178,0.813 0.017,0.246 0.056,0.227 0.114,0.382 0.058,0.154 0.033,0.284 0.066,0.47 0.04,0.224 0.092,0.176 0.135,0.362 0.034,0.149 0.018,0.35 0.045,0.45 0.061,0.215 0.11,0.118 0.134,0.361 0.02,0.19 0.013,0.303 0.073,0.464 0.1,0.265 0.093,0.584 0.194,0.798l0.17 0.844c0.001,0.055 -0.052,0.262 -0.067,0.409l-0.086 0.41c-0.137,0.327 -0.055,0.451 -0.21,0.823 -0.057,0.136 -0.062,0.255 -0.071,0.424 -0.016,0.305 -0.04,0.157 -0.118,0.378 -0.05,0.142 -0.029,0.261 -0.053,0.442 -0.023,0.17 -0.107,0.21 -0.145,0.392 -0.038,0.182 0.002,0.284 -0.05,0.446 -0.047,0.148 -0.105,0.197 -0.126,0.37 -0.072,0.611 -0.106,0.408 -0.207,1.073 -0.036,0.237 -0.132,0.34 -0.162,0.623 -0.077,0.724 -0.173,0.058 -0.173,1.603 0,0.156 0.021,0.266 0.072,0.382l0.187 0.474c0.219,0.359 0.423,0.667 0.706,0.988 0.005,0.007 0.014,0.015 0.019,0.022 0.006,0.006 0.013,0.016 0.019,0.023 0.036,0.045 0.017,0.026 0.052,0.072l0.533 0.665c0.075,0.096 0.124,0.158 0.201,0.252l2.879 3.73c0.055,0.341 0.123,0.287 0.17,0.739l0.112 0.342c0.076,0.184 0.029,0.226 0.057,0.439 0.017,0.129 0.086,0.22 0.127,0.327 0.05,0.132 0.021,0.283 0.05,0.446 0.048,0.265 0.073,0.152 0.125,0.329 0.031,0.102 0.038,0.328 0.059,0.438 0.036,0.195 0.078,0.191 0.115,0.339 0.034,0.138 0.036,0.256 0.053,0.4 0.024,0.197 0.065,0.188 0.115,0.34 0.052,0.155 0.03,0.253 0.059,0.437 0.022,0.135 0.08,0.204 0.121,0.333 0.052,0.162 0.012,0.265 0.05,0.445 0.031,0.144 0.088,0.19 0.125,0.33 0.035,0.133 0.028,0.347 0.055,0.441 0.055,0.2 0.088,0.115 0.13,0.324 0.018,0.09 0,0.078 0.03,0.177 0.054,0.185 0.009,0.036 0.086,0.161l0.366 0.584c0.165,0.212 0.295,0.324 0.506,0.485l0.69 0.426c0.081,0.043 0.104,0.035 0.185,0.063l2.235 1.069c0.06,0.034 0.048,0.044 0.123,0.083l2.734 1.314c0.424,0.268 0.203,-0.028 0.76,0.644 0.036,0.043 0.066,0.078 0.094,0.113l0.431 0.561c0.005,0.007 0.013,0.016 0.019,0.022l0.9 1.124c0.086,0.112 0.034,0.023 0.114,0.133l2.232 2.808c0.134,0.161 0.3,0.281 0.465,0.402 0.194,0.142 0.398,0.266 0.621,0.329 0.165,0.047 0.139,0.098 0.316,0.139 0.484,0.113 6.025,0.049 7.009,0.053 0.422,0.002 0.792,0.33 1.18,0.473 0.233,0.085 0.394,0.227 0.631,0.319 0.053,0.021 0.128,0.032 0.187,0.061 0.107,0.05 0.024,0.023 0.125,0.082 0.121,0.071 0.067,0.027 0.178,0.069l0.446 0.216c0.107,0.063 0.025,0.041 0.153,0.094l0.645 0.305c0.081,0.045 0.106,0.042 0.178,0.07l1.451 0.696c0.198,0.077 0.016,0.002 0.134,0.073 0.118,0.073 0.024,0.026 0.168,0.08 0.127,0.049 0.07,0.02 0.168,0.08 0.126,0.075 -0.008,0.015 0.162,0.085l0.492 0.211c0.389,0.144 0.374,0.187 1.011,0.187 0.879,0 0.676,-0.077 1.148,-0.215 0.074,-0.022 0.103,-0.027 0.177,-0.07l1.218 -0.6c0.009,-0.004 0.02,-0.008 0.029,-0.012l0.333 -0.163c0.133,-0.048 0.051,0.018 0.185,-0.063l0.117 -0.089c0.09,-0.046 0.087,-0.013 0.189,-0.059 0.127,-0.056 0.079,-0.078 0.204,-0.127 0.032,-0.013 0.046,-0.009 0.096,-0.027l0.636 -0.314c0.363,-0.157 0.739,-0.388 1.121,-0.531 0.106,-0.04 0.072,-0.015 0.17,-0.078 0.072,-0.046 0.033,-0.037 0.125,-0.081l0.954 -0.451c0.506,-0.322 0.825,-0.218 1.476,-0.218 0.771,0 5.079,0.06 5.635,-0.024 0.164,-0.024 0.277,-0.006 0.436,-0.017 0.228,-0.016 0.212,-0.075 0.362,-0.134l0.489 -0.214c0.225,-0.117 0.479,-0.324 0.641,-0.515l1.266 -1.584c0.335,-0.409 0.912,-1.206 1.25,-1.559 0.074,-0.078 0.139,-0.163 0.206,-0.248l0.209 -0.286c0.054,-0.076 0.044,-0.051 0.095,-0.113l0.336 -0.406c0.166,-0.193 0.252,-0.352 0.41,-0.541l0.328 -0.374c0.217,-0.236 0.187,-0.147 0.42,-0.282l0.455 -0.247c0.06,-0.028 0.135,-0.039 0.188,-0.06l0.931 -0.474c0.071,-0.03 0.081,-0.024 0.15,-0.056l0.803 -0.394c0.231,-0.147 0.526,-0.247 0.777,-0.38l0.651 -0.3c0.093,-0.06 0.057,-0.045 0.162,-0.085l0.947 -0.457c0.029,-0.018 0.018,-0.018 0.08,-0.045l0.681 -0.351c0.227,-0.139 0.474,-0.344 0.644,-0.554l0.301 -0.401c0.032,-0.053 0.046,-0.117 0.073,-0.175 0.071,-0.149 0.104,-0.094 0.146,-0.308 0.024,-0.122 -0.001,-0.094 0.041,-0.207 0.097,-0.257 0.103,-0.243 0.14,-0.562 0.02,-0.174 0.079,-0.222 0.126,-0.37 0.046,-0.145 0.019,-0.229 0.05,-0.405 0.032,-0.19 0.082,-0.212 0.124,-0.371 0.032,-0.119 0.038,-0.319 0.054,-0.401 0.041,-0.212 0.096,-0.228 0.125,-0.37 0.028,-0.132 0.027,-0.278 0.051,-0.404 0.05,-0.269 0.064,-0.085 0.172,-0.777 0.025,-0.159 0.075,-0.175 0.121,-0.334 0.04,-0.137 0.019,-0.24 0.043,-0.411 0.029,-0.202 0.088,-0.128 0.14,-0.356 0.035,-0.154 0.004,-0.271 0.037,-0.417 0.042,-0.186 0.095,-0.138 0.134,-0.361 0.026,-0.141 0.021,-0.319 0.046,-0.409 0.051,-0.183 0.094,-0.154 0.13,-0.366 0.017,-0.102 -0.006,-0.074 0.029,-0.177 0.055,-0.155 0.629,-0.799 0.745,-0.948l0.941 -1.166c0.006,-0.007 0.013,-0.016 0.018,-0.023 0.006,-0.007 0.013,-0.017 0.019,-0.023l0.037 -0.046c0.005,-0.006 0.014,-0.015 0.019,-0.021l1.678 -2.122c0.006,-0.007 0.013,-0.017 0.018,-0.024l0.078 -0.087c0.061,-0.076 0.013,-0.02 0.053,-0.072 0.214,-0.284 0.486,-0.552 0.662,-0.865l0.174 -0.322c0.028,-0.074 0.018,-0.086 0.04,-0.166 0.062,-0.219 0.161,-0.313 0.161,-0.583 0,-1.527 -0.107,-0.943 -0.169,-1.565 -0.032,-0.316 -0.106,-0.365 -0.155,-0.589 -0.057,-0.254 -0.054,-0.45 -0.136,-0.649 -0.098,-0.237 -0.029,-0.372 -0.191,-0.8 -0.06,-0.161 -0.03,-0.282 -0.06,-0.477 -0.025,-0.155 -0.104,-0.227 -0.138,-0.357 -0.038,-0.143 -0.023,-0.352 -0.048,-0.449 -0.058,-0.227 -0.111,-0.155 -0.134,-0.361 -0.077,-0.688 -0.132,-0.466 -0.175,-0.858 -0.031,-0.282 -0.152,-0.522 -0.187,-0.804 -0.01,-0.08 -0.01,-0.147 -0.023,-0.226 -0.055,-0.342 -0.027,-0.226 0.016,-0.626 0.034,-0.332 0.141,-0.47 0.186,-0.806 0.039,-0.291 0.007,-0.218 0.098,-0.439 0.05,-0.121 0.071,-0.254 0.081,-0.413 0.022,-0.308 0.049,-0.194 0.114,-0.382 0.054,-0.154 0.036,-0.254 0.059,-0.438 0.025,-0.213 0.091,-0.191 0.138,-0.398 0.031,-0.139 0.026,-0.348 0.052,-0.443 0.05,-0.181 0.106,-0.165 0.13,-0.366 0.071,-0.586 0.129,-0.469 0.178,-0.855l0.292 -1.237c0.108,-0.259 0.12,-1.297 0.019,-1.567l-0.13 -0.325c-0.024,-0.089 -0.025,-0.087 -0.059,-0.147l-0.692 -1.002c-0.031,-0.038 -0.063,-0.069 -0.097,-0.109l-1.993 -2.509c-0.071,-0.087 -0.145,-0.165 -0.209,-0.246l-1.3 -1.632c-0.157,-0.193 -0.287,-0.737 -0.3,-0.981 -0.022,-0.414 -0.104,-0.093 -0.17,-0.78 -0.014,-0.149 -0.052,-0.224 -0.106,-0.348 -0.087,-0.201 -0.042,-0.423 -0.184,-0.766 -0.038,-0.093 -0.034,-0.357 -0.177,-0.774 -0.085,-0.247 -0.058,-0.483 -0.166,-0.742 -0.064,-0.15 -0.051,-0.239 -0.066,-0.43 -0.015,-0.208 -0.061,-0.209 -0.116,-0.338 -0.07,-0.166 -0.029,-0.239 -0.056,-0.439l-0.121 -0.334c-0.053,-0.148 -0.02,-0.259 -0.057,-0.438 -0.042,-0.202 -0.094,-0.2 -0.13,-0.325 -0.17,-0.591 -0.022,-0.088 -0.177,-0.483 -0.04,-0.1 -0.013,-0.073 -0.077,-0.172l-0.209 -0.287c-0.005,-0.006 -0.014,-0.015 -0.019,-0.021l-0.197 -0.216c-0.154,-0.156 -0.336,-0.329 -0.527,-0.424l-1.878 -0.931c-0.074,-0.042 0.021,0.003 -0.075,-0.049 -0.064,-0.034 -0.014,-0.012 -0.086,-0.037 -0.089,-0.032 -0.091,-0.012 -0.184,-0.064 -0.008,-0.004 -0.018,-0.011 -0.025,-0.016 -0.209,-0.133 -0.522,-0.233 -0.742,-0.373l-0.349 -0.148c-0.103,-0.059 0,-0.027 -0.156,-0.092l-0.121 -0.043c-0.009,-0.004 -0.019,-0.01 -0.027,-0.014l-2.385 -1.168c-0.173,-0.066 -0.147,-0.085 -0.26,-0.235l-0.242 -0.296c-0.006,-0.006 -0.013,-0.016 -0.018,-0.023l-0.641 -0.805c-0.005,-0.006 -0.013,-0.015 -0.019,-0.022l-0.126 -0.163c-0.006,-0.006 -0.014,-0.015 -0.019,-0.022l-1.006 -1.266c-0.058,-0.074 -0.054,-0.08 -0.103,-0.145l-0.682 -0.846c-0.032,-0.041 -0.021,-0.033 -0.052,-0.072 -0.008,-0.009 -0.03,-0.036 -0.038,-0.045l-0.317 -0.385c-0.001,-0.002 -0.034,-0.035 -0.059,-0.065l-0.361 -0.465c-0.035,-0.042 -0.02,-0.028 -0.054,-0.069l-0.607 -0.633c-0.007,-0.005 -0.016,-0.013 -0.023,-0.019l-0.206 -0.165c-0.1,-0.078 -0.001,-0.034 -0.151,-0.097l-0.497 -0.205c-0.084,-0.025 -0.098,-0.041 -0.173,-0.075 -0.152,-0.067 -0.216,-0.072 -0.424,-0.071l-6.571 0.003c-0.327,0.002 -0.293,-0.08 -0.535,-0.167l-1.455 -0.693c-0.115,-0.041 -0.036,0.008 -0.149,-0.057 -0.123,-0.071 0.038,-0.016 -0.151,-0.097l-1.603 -0.751c-0.014,-0.007 -0.076,-0.054 -0.126,-0.081l-2.594 -1.206c-0.01,-0.002 -0.025,-0.004 -0.044,-0.006l-1.26 0c-0.148,0.009 -0.26,0.023 -0.299,0.043l-2.551 1.207c-0.106,0.068 -0.009,0.022 -0.136,0.071 -0.09,0.035 -0.079,0.016 -0.176,0.072 -0.029,0.017 -0.071,0.048 -0.074,0.05l-1.365 0.658c-0.121,0.077 -0.19,0.066 -0.323,0.132l-1.419 0.688c-0.153,0.074 -0.137,0.127 -0.358,0.137 -0.299,0.014 -0.647,-0.002 -0.952,-0.002 -0.512,0 -5.766,-0.06 -6.083,0.03l-0.58 0.246c-0.065,0.04 -0.009,0.011 -0.082,0.043l-0.266 0.147c-0.395,0.302 -0.42,0.385 -0.733,0.712l-0.228 0.267c-0.074,0.078 -0.145,0.163 -0.203,0.251l-0.834 1.066c-0.073,0.091 -0.134,0.167 -0.202,0.253l-1.943 2.436c-0.048,0.056 -0.023,0.021 -0.06,0.064l-0.258 0.319c-0.086,0.118 -0.16,0.267 -0.287,0.334l-0.355 0.181c-0.009,0.004 -0.021,0.007 -0.03,0.011 -0.052,0.021 -0.016,-0.002 -0.092,0.032l-0.303 0.152c-0.141,0.045 -0.073,0.017 -0.171,0.077l-0.432 0.228c-0.071,0.032 -0.124,0.034 -0.188,0.06l-1.603 0.793c-0.064,0.034 -0.099,0.038 -0.147,0.059l-0.697 0.336c-0.01,0.004 -0.021,0.007 -0.031,0.011l-1.024 0.503c-0.137,0.057 -0.054,0.025 -0.132,0.075l-1.391 0.84c-0.41,0.413 -0.653,0.907 -0.812,1.459 -0.039,0.135 -0.021,0.24 -0.049,0.406 -0.03,0.177 -0.089,0.166 -0.134,0.362 -0.035,0.154 -0.004,0.27 -0.037,0.416 -0.04,0.175 -0.111,0.175 -0.141,0.355 -0.024,0.148 -0.013,0.322 -0.039,0.416 -0.051,0.182 -0.098,0.157 -0.13,0.365 -0.022,0.138 -0.023,0.272 -0.052,0.403 -0.043,0.193 -0.085,0.094 -0.123,0.373 -0.085,0.626 -0.108,0.395 -0.174,0.734 -0.017,0.088 -0.014,0.286 -0.046,0.408 -0.037,0.14 -0.098,0.167 -0.132,0.364 -0.028,0.163 0.006,0.266 -0.043,0.411 -0.048,0.143 -0.112,0.179 -0.132,0.364 -0.068,0.614 -0.096,0.368 -0.169,0.781 -0.036,0.202 -0.033,0.164 -0.147,0.307l-0.586 0.736c-0.005,0.007 -0.013,0.016 -0.019,0.023l-0.467 0.565c-0.006,0.007 -0.012,0.018 -0.017,0.025l-0.218 0.277c-0.001,0.001 -0.049,0.051 -0.06,0.064l-0.966 1.223c-0.001,0 -0.032,0.038 -0.055,0.069l-1.536 1.933c-0.137,0.178 -0.339,0.449 -0.407,0.668l-0.125 0.329c-0.048,0.107 -0.066,0.286 -0.066,0.43zm33.44 -16.463c13.431,0 24.319,10.888 24.319,24.319 0,13.431 -10.888,24.319 -24.319,24.319 -13.431,0 -24.319,-10.888 -24.319,-24.319 0,-13.431 10.888,-24.319 24.319,-24.319z"/>
    <path class="fil0" d="M49.973 70.258c0,0.108 0.19,0.439 0.262,0.564l0.19 0.389c0.046,0.089 0.049,0.128 0.103,0.227 0.047,0.084 0.027,0.03 0.062,0.103l0.618 1.282c0.081,0.134 0.059,0.063 0.129,0.243l0.686 1.379c0.069,0.169 0.051,0.088 0.117,0.213l1.504 3.04c0.056,0.088 0.009,-0.014 0.064,0.101 0.031,0.064 0.017,0.056 0.044,0.122l0.678 1.386c0.078,0.195 0.25,0.431 0.348,0.685 0.035,0.089 -0.005,0.013 0.06,0.106 0.066,0.095 0.006,-0.03 0.068,0.096 0.033,0.067 0.016,0.054 0.041,0.125l0.956 1.894c0.05,0.073 0.009,-0.01 0.045,0.079l1.141 2.328c0.065,0.104 0.021,0.016 0.06,0.106 0.101,0.237 0.245,0.439 0.341,0.691 0.024,0.062 0.009,0.049 0.043,0.123l0.125 0.205c0.134,0.306 0.28,0.65 0.464,0.94 0.146,0.229 0.234,0.514 0.37,0.746 0.004,0.008 0.01,0.018 0.015,0.026 0.004,0.009 0.009,0.02 0.013,0.028 0.022,0.047 0.014,0.052 0.048,0.117 0.118,0.224 0.307,0.491 0.487,0.67l0.33 0.29c0.053,0.033 0.057,0.027 0.105,0.059 0.098,0.067 0.031,0.029 0.092,0.074 0.062,0.046 0.054,0.036 0.102,0.063l0.514 0.23c0.049,0.028 0.195,0.049 0.381,0.063l1.205 0c0.015,-0.002 0.027,-0.004 0.037,-0.006 0.178,-0.041 0.651,-0.295 0.805,-0.394l0.401 -0.3c0.102,-0.102 0.246,-0.25 0.336,-0.367l0.146 -0.226c0.005,-0.007 0.013,-0.016 0.018,-0.023l0.125 -0.164c0.006,-0.006 0.013,-0.016 0.019,-0.022l1.976 -2.608c0.041,-0.053 0.047,-0.066 0.09,-0.118l0.371 -0.496c0.005,-0.006 0.014,-0.015 0.019,-0.022l0.037 -0.046c0.005,-0.007 0.012,-0.017 0.017,-0.024l0.05 -0.074c0.079,-0.102 0.035,-0.031 0.098,-0.109 0.005,-0.007 0.012,-0.016 0.018,-0.023l0.827 -1.115c0.118,-0.167 0.805,-1.174 1.015,-1.174 1.886,0 3.817,-0.06 5.7,0.042l2.717 -0.092c0.119,-0.019 0.138,-0.049 0.233,-0.097 0.27,-0.138 0.455,-0.176 0.806,-0.433 0.227,-0.167 0.467,-0.428 0.599,-0.682l0.202 -0.418c0.03,-0.085 -0.003,-0.011 0.04,-0.083 0.096,-0.161 0.098,-0.175 0.114,-0.381 0.035,-0.422 0.244,-0.506 0.043,-1.123 -0.055,-0.166 -0.025,-0.176 -0.055,-0.358 -0.034,-0.203 -0.696,-1.438 -0.834,-1.727l-1.101 -2.244c-0.039,-0.075 -0.049,-0.062 -0.083,-0.124l-0.132 -0.281c-0.07,-0.11 -0.023,-0.003 -0.07,-0.136 -0.028,-0.078 -0.014,-0.082 -0.051,-0.156l-1.058 -2.122c-0.184,-0.289 -0.345,-0.726 -0.493,-0.994l-0.787 -1.526c-0.025,-0.052 -0.033,-0.1 -0.055,-0.152 -0.032,-0.077 0.006,-0.001 -0.041,-0.083 -0.052,-0.089 -0.012,-0.008 -0.05,-0.074 -0.066,-0.115 -0.06,-0.161 -0.132,-0.281l-0.623 -1.277c-0.065,-0.175 -0.078,-0.089 -0.147,-0.266l-0.21 -0.45c-0.043,-0.107 -0.026,-0.049 -0.077,-0.13l-1.402 -2.812c-0.004,-0.008 -0.01,-0.018 -0.014,-0.027 -0.004,-0.009 -0.008,-0.02 -0.012,-0.029l-1.238 -2.48c-0.153,-0.257 -0.381,-0.005 -0.759,0.176l-0.752 0.363c-0.067,0.027 -0.114,0.025 -0.187,0.062l-0.434 0.226c-0.101,0.061 -0.046,0.03 -0.168,0.08 -0.172,0.071 -0.036,0.009 -0.162,0.086l-0.322 0.132c-0.462,0.253 -0.579,0.216 -0.92,0.692l-0.95 1.197c-0.005,0.007 -0.013,0.016 -0.019,0.023 -0.011,0.014 -0.045,0.056 -0.056,0.068l-0.761 0.932c-0.05,0.06 -0.015,0.013 -0.055,0.069l-0.613 0.791c-0.084,0.095 -0.128,0.147 -0.207,0.248l-0.104 0.144c-0.005,0.007 -0.012,0.016 -0.018,0.023l-0.594 0.727c-0.401,0.542 -1.012,1.084 -1.624,1.392l-0.448 0.212c-0.079,0.031 -0.101,0.056 -0.162,0.087l-0.689 0.219c-0.12,0.017 -0.311,0.028 -0.434,0.062 -0.508,0.14 -0.19,0.099 -0.81,0.098 -0.883,0 -5.463,-0.051 -5.939,0.01l-0.362 0.133c-0.357,0.189 -1.091,0.488 -1.394,0.671 -0.101,0.061 -0.047,0.03 -0.168,0.08 -0.173,0.071 -0.128,0.094 -0.301,0.154 -0.064,0.022 -0.099,0.023 -0.156,0.05 -0.086,0.04 -0.068,0.052 -0.151,0.097 -0.121,0.066 -0.286,0.056 -0.286,0.21z"/>
    <path class="fil0" d="M11.271 78.725c0,0.651 0.069,0.486 0.117,0.874 0.017,0.135 -0.011,0.132 0.036,0.254l0.42 0.777c0.006,0.007 0.014,0.016 0.02,0.022l0.897 0.755 0.419 0.201c0.245,0.131 0.244,0.065 0.552,0.108 0.721,0.1 1.65,0.109 2.454,0.066 1.855,-0.1 3.759,-0.042 5.618,-0.042 0.162,0 0.278,0.189 0.36,0.301l1.524 2.028c0.008,0.009 0.031,0.035 0.038,0.045l0.811 1.089c0.005,0.007 0.013,0.016 0.018,0.023l0.09 0.117c0.005,0.007 0.011,0.017 0.017,0.024 0.005,0.007 0.011,0.018 0.017,0.025 0.071,0.092 0.026,0.027 0.077,0.087l0.23 0.307c0.024,0.037 0.03,0.05 0.066,0.1l0.604 0.8c0.036,0.052 0.03,0.05 0.066,0.099l1.398 1.7c0.417,0.364 0.682,0.374 0.913,0.491 0.103,0.053 0.043,0.069 0.144,0.075l1.463 0c0.02,-0.002 0.036,-0.004 0.046,-0.006 0.099,-0.026 0.038,-0.016 0.109,-0.057 0.183,-0.106 0.412,-0.152 0.592,-0.275l0.141 -0.107c0.28,-0.186 0.572,-0.452 0.734,-0.752l0.449 -0.832c0.017,-0.025 0.022,-0.02 0.049,-0.075 0.031,-0.066 0.019,-0.067 0.041,-0.125 0.121,-0.337 0.39,-0.668 0.512,-1.016 0.083,-0.237 0.033,-0.05 0.133,-0.239l0.275 -0.592c0.044,-0.074 0.028,-0.025 0.066,-0.099l0.801 -1.636c0.053,-0.089 0.021,-0.017 0.062,-0.104 0.015,-0.032 0.034,-0.095 0.045,-0.119l0.868 -1.735c0.048,-0.112 0.008,-0.026 0.057,-0.107l1.063 -2.119c0.111,-0.175 0.144,-0.388 0.301,-0.648 0.044,-0.074 0.028,-0.026 0.066,-0.099 0.047,-0.09 0.022,-0.069 0.057,-0.15l0.465 -0.898c0.024,-0.051 0.022,-0.065 0.045,-0.12 0.006,-0.012 0.021,-0.045 0.026,-0.057 0.005,-0.008 0.011,-0.018 0.016,-0.026l1.808 -3.603c0.03,-0.063 0.017,-0.055 0.043,-0.121l0.241 -0.462c0.053,-0.088 0.021,-0.017 0.062,-0.103l1.083 -2.221c0.044,-0.115 0.009,-0.031 0.053,-0.113 0.038,-0.071 0.07,-0.069 0.07,-0.177 0,-0.145 -0.275,-0.208 -0.384,-0.277l-0.232 -0.098c-0.154,-0.067 -0.06,-0.071 -0.236,-0.136l-1.577 -0.737c-0.348,-0.168 -0.28,-0.159 -0.751,-0.157l-5.951 0.003c-0.25,-0.002 -0.481,-0.112 -0.796,-0.154 -0.302,-0.041 -0.141,-0.016 -0.348,-0.107 -0.115,-0.05 -0.244,-0.045 -0.358,-0.096 -0.092,-0.04 -0.06,-0.052 -0.15,-0.097 -0.173,-0.087 -0.112,-0.013 -0.402,-0.177 -0.064,-0.036 -0.028,-0.012 -0.085,-0.038 -0.201,-0.091 -0.367,-0.233 -0.557,-0.353 -0.287,-0.181 -0.509,-0.416 -0.75,-0.654l-0.941 -1.124c-0.005,-0.007 -0.013,-0.016 -0.018,-0.023l-1.493 -1.895c-0.068,-0.095 -0.123,-0.161 -0.199,-0.254 -0.053,-0.066 -0.056,-0.074 -0.111,-0.137l-0.744 -0.909c-0.005,-0.006 -0.013,-0.016 -0.019,-0.022l-0.25 -0.329c-0.159,-0.213 -0.185,-0.235 -0.41,-0.374l-0.072 -0.052c-0.212,-0.139 -0.425,-0.172 -0.648,-0.302l-0.944 -0.46c-0.171,-0.053 -0.171,-0.103 -0.395,-0.184 -0.187,-0.067 -0.874,-0.481 -1.047,-0.481 -0.157,0 -0.306,0.48 -0.401,0.631l-0.159 0.337c-0.223,0.349 -0.462,0.994 -0.675,1.349l-0.489 0.997c-0.076,0.166 -0.074,0.062 -0.149,0.265l-0.369 0.787c-0.052,0.115 -0.065,0.054 -0.126,0.205l-0.949 1.942c-0.064,0.107 -0.027,0.001 -0.091,0.157l-2.081 4.197c-0.039,0.123 -0.091,0.088 -0.166,0.33l-0.188 0.39c-0.056,0.136 -0.025,0.054 -0.074,0.132 -0.067,0.106 -0.022,0.011 -0.071,0.136l-0.29 0.577c-0.005,0.007 -0.013,0.017 -0.017,0.025l-0.319 0.672c-0.05,0.08 -0.037,0.061 -0.068,0.139l-0.212 0.448c-0.032,0.059 -0.044,0.053 -0.083,0.124 -0.048,0.085 -0.022,0.05 -0.06,0.146l-0.102 0.188c-0.046,0.08 -0.009,0.008 -0.041,0.082l-0.359 0.716c-0.003,0.009 -0.006,0.021 -0.01,0.031 -0.004,0.009 -0.006,0.021 -0.01,0.031 -0.004,0.009 -0.007,0.021 -0.011,0.03l-0.178 0.36c-0.004,0.008 -0.009,0.019 -0.014,0.027 -0.044,0.081 0.002,-0.01 -0.05,0.073 -0.064,0.103 -0.036,0.064 -0.078,0.171l-0.144 0.268c-0.036,0.092 -0.008,0.063 -0.053,0.154l-0.084 0.122c-0.064,0.103 -0.066,0.182 -0.127,0.287 -0.095,0.165 -0.235,0.393 -0.289,0.577l-0.135 0.279c-0.036,0.096 -0.022,0.226 -0.051,0.362 -0.035,0.165 -0.107,0.189 -0.107,0.347z"/>
   </g>
   <path class="fil1" d="M45 14.071c11.641,0 21.078,9.437 21.078,21.078 0,11.641 -9.437,21.078 -21.078,21.078 -11.641,0 -21.078,-9.437 -21.078,-21.078 0,-11.641 9.437,-21.078 21.078,-21.078zm-6.558 17.852l4.768 3.802 8.001 -7.843 3.943 3.96 -10.065 9.979c-1.016,0.834 -2.148,0.783 -3.388,-0.099l-6.855 -5.61 3.596 -4.189z"/>
  </g>
 </g>
</svg>
